<svg xmlns="http://www.w3.org/2000/svg" width="2562" height="1066" viewBox="0 0 2562 1066"
    fill="none">
    <path
        d="M782.921 567.085C773.819 528.872 769 488.999 769 448C769 255.523 875.21 87.8526 1032.22 0.398529M862.395 742.886C955.086 874.224 1108.03 960 1281 960C1563.77 960 1793 730.77 1793 448C1793 255.449 1686.71 87.7239 1529.6 0.297852"
        stroke="#333333" />
    <circle cx="1855" cy="154" r="24" stroke="#333333" />
    <circle cx="1872" cy="170" r="4" fill="#333333" />
    <circle cx="1857" cy="130" r="3" fill="#333333" />
    <circle cx="1855" cy="154" r="5.5" fill="#333333" stroke="#333333" />
    <path
        d="M769.282 598.616C738.89 620.886 727.625 662.291 744.441 697.546C762.219 734.819 805.092 752.025 843.179 738.585M809 583.45C841.518 580.33 873.975 597.469 888.855 628.664C904.996 662.505 895.264 702.013 867.577 724.824"
        stroke="#333333" />
    <circle cx="855" cy="731" r="14" stroke="#333333" />
    <circle cx="855" cy="731" r="5.5" fill="#333333" stroke="#333333" />
    <path
        d="M821.612 660.737C831.717 681.923 822.734 707.289 801.549 717.394C780.363 727.499 754.997 718.516 744.892 697.331C734.787 676.145 743.77 650.779 764.955 640.674C786.141 630.569 811.507 639.552 821.612 660.737Z"
        stroke="#333333" />
    <circle cx="788" cy="588" r="21.5" stroke="#333333" />
    <circle cx="788" cy="588" r="10" fill="#333333" />
    <circle cx="800" cy="570" r="4" fill="#333333" />
    <path d="M2561 -193L1876.62 143.575M1 1066L745.797 699.711M1833.51 164.775L1735.89 212.784"
        stroke="#333333" />
</svg>