<svg xmlns="http://www.w3.org/2000/svg" viewBox="0 0 88 88" fill="none" class="z-10 w-[70px] xl:w-20"><g filter="url(#filter0_d_944_13288)"><path d="M81.5 43.9999C81.5 23.2907 64.7092 6.5 44 6.5C23.2877 6.5 6.50001 23.2907 6.50001 43.9999C6.50001 64.7122 23.2877 81.5 44 81.5C64.7092 81.4999 81.5 64.7122 81.5 43.9999Z" fill="url(#paint0_linear_944_13288)"></path></g><path d="M36.2026 62.1599C35.2775 62.1608 34.8101 61.2461 34.8101 61.2461C34.8101 61.2461 28.0152 51.6626 27.8702 51.4583C27.8073 51.3674 27.5976 51.1123 27.6518 50.7016C27.7322 50.0867 28.0702 49.9844 28.0702 49.9844L33.6186 49.9835L33.6185 40.6114C33.6201 33.4355 41.3281 32.8644 42.3184 32.8206C42.3529 32.8183 42.3877 32.8171 42.4227 32.8171C42.4227 32.8171 42.3864 32.8176 42.3184 32.8206C39.5984 33.005 38.6086 40.3668 38.6086 40.3668L38.6086 49.9835L43.8013 49.9835C43.8013 49.9835 44.1525 50.0132 44.3307 50.7015C44.4757 51.2589 44.2276 51.6678 44.2276 51.6678L37.4728 61.5116C37.4728 61.5116 37.1042 62.1599 36.2026 62.1599Z" fill="#F7F7F8"></path><path d="M47.2857 57.3059C47.2503 57.3084 47.2146 57.3096 47.1785 57.3096C47.1785 57.3096 47.2159 57.3091 47.2857 57.3059C50.0018 57.1184 50.9893 49.7669 50.9893 49.7669L50.9893 40.1992L45.8 40.1992C45.8 40.1992 45.3807 40.2027 45.2601 39.6313C45.1483 39.1002 45.3736 38.4764 45.3736 38.4764L52.1231 28.6413C52.1231 28.6413 52.4918 27.9931 53.3934 27.9931C54.3159 27.9931 54.7842 28.9087 54.7842 28.9087C54.7842 28.9087 61.5721 38.4817 61.7172 38.6861C61.7172 38.6861 62.0457 39.1508 61.9391 39.6348C61.8115 40.2131 61.5162 40.1974 61.5162 40.1974L55.974 40.1973L55.974 49.524C55.9741 56.6847 48.2875 57.2612 47.2857 57.3059Z" fill="#F7F7F8"></path><defs><filter id="filter0_d_944_13288" x="0.5" y="0.5" width="87" height="87" filterUnits="userSpaceOnUse" color-interpolation-filters="sRGB"><feFlood flood-opacity="0" result="BackgroundImageFix"></feFlood><feColorMatrix in="SourceAlpha" type="matrix" values="0 0 0 0 0 0 0 0 0 0 0 0 0 0 0 0 0 0 127 0" result="hardAlpha"></feColorMatrix><feOffset></feOffset><feGaussianBlur stdDeviation="3"></feGaussianBlur><feComposite in2="hardAlpha" operator="out"></feComposite><feColorMatrix type="matrix" values="0 0 0 0 0.0784314 0 0 0 0 0.0823529 0 0 0 0 0.0823529 0 0 0 0.2 0"></feColorMatrix><feBlend mode="normal" in2="BackgroundImageFix" result="effect1_dropShadow_944_13288"></feBlend><feBlend mode="normal" in="SourceGraphic" in2="effect1_dropShadow_944_13288" result="shape"></feBlend></filter><linearGradient id="paint0_linear_944_13288" x1="62.8163" y1="0.986517" x2="62.9762" y2="105.153" gradientUnits="userSpaceOnUse"><stop stop-color="#4F60FF"></stop><stop offset="1" stop-color="#8762F3"></stop></linearGradient></defs></svg>